<svg xmlns="http://www.w3.org/2000/svg" width="1240" height="274" viewBox="0 0 1240 274"><title>AZPIPE welcome: offline model view</title><rect width="100%" height="100%" rx="12" fill="#101416"/><g font-family="Menlo,DejaVu Sans Mono,monospace" font-size="19" xml:space="preserve"><text x="20" y="30" fill="#42caff">╭</text><text x="32" y="30" fill="#42caff">─</text><text x="56" y="30" fill="#42caff">L</text><text x="68" y="30" fill="#42caff">I</text><text x="80" y="30" fill="#42caff">G</text><text x="92" y="30" fill="#42caff">A</text><text x="104" y="30" fill="#42caff">Ç</text><text x="116" y="30" fill="#42caff">Ã</text><text x="128" y="30" fill="#42caff">O</text><text x="152" y="30" fill="#42caff">A</text><text x="164" y="30" fill="#42caff">O</text><text x="188" y="30" fill="#42caff">A</text><text x="200" y="30" fill="#42caff">Z</text><text x="212" y="30" fill="#42caff">U</text><text x="224" y="30" fill="#42caff">R</text><text x="236" y="30" fill="#42caff">E</text><text x="260" y="30" fill="#42caff">D</text><text x="272" y="30" fill="#42caff">E</text><text x="284" y="30" fill="#42caff">V</text><text x="296" y="30" fill="#42caff">O</text><text x="308" y="30" fill="#42caff">P</text><text x="320" y="30" fill="#42caff">S</text><text x="344" y="30" fill="#42caff">─</text><text x="356" y="30" fill="#42caff">─</text><text x="368" y="30" fill="#42caff">─</text><text x="380" y="30" fill="#42caff">─</text><text x="392" y="30" fill="#42caff">─</text><text x="404" y="30" fill="#42caff">─</text><text x="416" y="30" fill="#42caff">─</text><text x="428" y="30" fill="#42caff">─</text><text x="440" y="30" fill="#42caff">─</text><text x="452" y="30" fill="#42caff">─</text><text x="464" y="30" fill="#42caff">─</text><text x="476" y="30" fill="#42caff">─</text><text x="488" y="30" fill="#42caff">─</text><text x="500" y="30" fill="#42caff">─</text><text x="512" y="30" fill="#42caff">─</text><text x="524" y="30" fill="#42caff">─</text><text x="536" y="30" fill="#42caff">─</text><text x="548" y="30" fill="#42caff">─</text><text x="560" y="30" fill="#42caff">─</text><text x="572" y="30" fill="#42caff">─</text><text x="584" y="30" fill="#42caff">─</text><text x="596" y="30" fill="#42caff">─</text><text x="608" y="30" fill="#42caff">─</text><text x="620" y="30" fill="#42caff">─</text><text x="632" y="30" fill="#42caff">─</text><text x="644" y="30" fill="#42caff">─</text><text x="656" y="30" fill="#42caff">─</text><text x="668" y="30" fill="#42caff">─</text><text x="680" y="30" fill="#42caff">─</text><text x="692" y="30" fill="#42caff">─</text><text x="704" y="30" fill="#42caff">─</text><text x="716" y="30" fill="#42caff">─</text><text x="728" y="30" fill="#42caff">─</text><text x="740" y="30" fill="#42caff">─</text><text x="752" y="30" fill="#42caff">─</text><text x="764" y="30" fill="#42caff">─</text><text x="776" y="30" fill="#42caff">─</text><text x="788" y="30" fill="#42caff">─</text><text x="800" y="30" fill="#42caff">─</text><text x="812" y="30" fill="#42caff">─</text><text x="824" y="30" fill="#42caff">─</text><text x="836" y="30" fill="#42caff">─</text><text x="848" y="30" fill="#42caff">─</text><text x="860" y="30" fill="#42caff">─</text><text x="872" y="30" fill="#42caff">─</text><text x="884" y="30" fill="#42caff">─</text><text x="896" y="30" fill="#42caff">─</text><text x="908" y="30" fill="#42caff">─</text><text x="920" y="30" fill="#42caff">─</text><text x="932" y="30" fill="#42caff">─</text><text x="944" y="30" fill="#42caff">─</text><text x="956" y="30" fill="#42caff">─</text><text x="968" y="30" fill="#42caff">─</text><text x="980" y="30" fill="#42caff">─</text><text x="992" y="30" fill="#42caff">─</text><text x="1004" y="30" fill="#42caff">─</text><text x="1016" y="30" fill="#42caff">─</text><text x="1028" y="30" fill="#42caff">─</text><text x="1040" y="30" fill="#42caff">─</text><text x="1052" y="30" fill="#42caff">─</text><text x="1064" y="30" fill="#42caff">─</text><text x="1076" y="30" fill="#42caff">─</text><text x="1088" y="30" fill="#42caff">─</text><text x="1100" y="30" fill="#42caff">─</text><text x="1112" y="30" fill="#42caff">─</text><text x="1124" y="30" fill="#42caff">─</text><text x="1136" y="30" fill="#42caff">─</text><text x="1148" y="30" fill="#42caff">─</text><text x="1160" y="30" fill="#42caff">─</text><text x="1172" y="30" fill="#42caff">─</text><text x="1184" y="30" fill="#42caff">─</text><text x="1196" y="30" fill="#42caff">─</text><text x="1208" y="30" fill="#42caff">╮</text><text x="20" y="56" fill="#c4ee24">│</text><text x="68" y="56" fill="#c4ee24">A</text><text x="80" y="56" fill="#c4ee24">Z</text><text x="92" y="56" fill="#c4ee24">P</text><text x="104" y="56" fill="#c4ee24">I</text><text x="116" y="56" fill="#c4ee24">P</text><text x="128" y="56" fill="#c4ee24">E</text><text x="1208" y="56" fill="#c4ee24">│</text><text x="20" y="82" fill="#e8e9e8">│</text><text x="1208" y="82" fill="#e8e9e8">│</text><text x="20" y="108" fill="#e8e9e8">│</text><text x="44" y="108" fill="#e8e9e8">L</text><text x="56" y="108" fill="#e8e9e8">i</text><text x="68" y="108" fill="#e8e9e8">g</text><text x="80" y="108" fill="#e8e9e8">a</text><text x="92" y="108" fill="#e8e9e8">r</text><text x="116" y="108" fill="#e8e9e8">a</text><text x="128" y="108" fill="#e8e9e8">o</text><text x="152" y="108" fill="#e8e9e8">A</text><text x="164" y="108" fill="#e8e9e8">z</text><text x="176" y="108" fill="#e8e9e8">u</text><text x="188" y="108" fill="#e8e9e8">r</text><text x="200" y="108" fill="#e8e9e8">e</text><text x="224" y="108" fill="#e8e9e8">D</text><text x="236" y="108" fill="#e8e9e8">e</text><text x="248" y="108" fill="#e8e9e8">v</text><text x="260" y="108" fill="#e8e9e8">O</text><text x="272" y="108" fill="#e8e9e8">p</text><text x="284" y="108" fill="#e8e9e8">s</text><text x="1208" y="108" fill="#e8e9e8">│</text><text x="20" y="134" fill="#e8e9e8">│</text><text x="44" y="134" fill="#e8e9e8">I</text><text x="56" y="134" fill="#e8e9e8">n</text><text x="68" y="134" fill="#e8e9e8">t</text><text x="80" y="134" fill="#e8e9e8">r</text><text x="92" y="134" fill="#e8e9e8">o</text><text x="104" y="134" fill="#e8e9e8">d</text><text x="116" y="134" fill="#e8e9e8">u</text><text x="128" y="134" fill="#e8e9e8">z</text><text x="140" y="134" fill="#e8e9e8">a</text><text x="164" y="134" fill="#e8e9e8">a</text><text x="188" y="134" fill="#e8e9e8">o</text><text x="200" y="134" fill="#e8e9e8">r</text><text x="212" y="134" fill="#e8e9e8">g</text><text x="224" y="134" fill="#e8e9e8">a</text><text x="236" y="134" fill="#e8e9e8">n</text><text x="248" y="134" fill="#e8e9e8">i</text><text x="260" y="134" fill="#e8e9e8">z</text><text x="272" y="134" fill="#e8e9e8">a</text><text x="284" y="134" fill="#e8e9e8">ç</text><text x="296" y="134" fill="#e8e9e8">ã</text><text x="308" y="134" fill="#e8e9e8">o</text><text x="320" y="134" fill="#e8e9e8">.</text><text x="344" y="134" fill="#e8e9e8">A</text><text x="368" y="134" fill="#e8e9e8">a</text><text x="380" y="134" fill="#e8e9e8">p</text><text x="392" y="134" fill="#e8e9e8">l</text><text x="404" y="134" fill="#e8e9e8">i</text><text x="416" y="134" fill="#e8e9e8">c</text><text x="428" y="134" fill="#e8e9e8">a</text><text x="440" y="134" fill="#e8e9e8">ç</text><text x="452" y="134" fill="#e8e9e8">ã</text><text x="464" y="134" fill="#e8e9e8">o</text><text x="488" y="134" fill="#e8e9e8">u</text><text x="500" y="134" fill="#e8e9e8">s</text><text x="512" y="134" fill="#e8e9e8">a</text><text x="536" y="134" fill="#e8e9e8">a</text><text x="560" y="134" fill="#e8e9e8">s</text><text x="572" y="134" fill="#e8e9e8">e</text><text x="584" y="134" fill="#e8e9e8">s</text><text x="596" y="134" fill="#e8e9e8">s</text><text x="608" y="134" fill="#e8e9e8">ã</text><text x="620" y="134" fill="#e8e9e8">o</text><text x="644" y="134" fill="#e8e9e8">A</text><text x="656" y="134" fill="#e8e9e8">z</text><text x="668" y="134" fill="#e8e9e8">u</text><text x="680" y="134" fill="#e8e9e8">r</text><text x="692" y="134" fill="#e8e9e8">e</text><text x="716" y="134" fill="#e8e9e8">D</text><text x="728" y="134" fill="#e8e9e8">e</text><text x="740" y="134" fill="#e8e9e8">v</text><text x="752" y="134" fill="#e8e9e8">O</text><text x="764" y="134" fill="#e8e9e8">p</text><text x="776" y="134" fill="#e8e9e8">s</text><text x="800" y="134" fill="#e8e9e8">c</text><text x="812" y="134" fill="#e8e9e8">o</text><text x="824" y="134" fill="#e8e9e8">n</text><text x="836" y="134" fill="#e8e9e8">f</text><text x="848" y="134" fill="#e8e9e8">i</text><text x="860" y="134" fill="#e8e9e8">g</text><text x="872" y="134" fill="#e8e9e8">u</text><text x="884" y="134" fill="#e8e9e8">r</text><text x="896" y="134" fill="#e8e9e8">a</text><text x="908" y="134" fill="#e8e9e8">d</text><text x="920" y="134" fill="#e8e9e8">a</text><text x="944" y="134" fill="#e8e9e8">n</text><text x="956" y="134" fill="#e8e9e8">e</text><text x="968" y="134" fill="#e8e9e8">s</text><text x="980" y="134" fill="#e8e9e8">t</text><text x="992" y="134" fill="#e8e9e8">e</text><text x="1016" y="134" fill="#e8e9e8">c</text><text x="1028" y="134" fill="#e8e9e8">o</text><text x="1040" y="134" fill="#e8e9e8">m</text><text x="1052" y="134" fill="#e8e9e8">p</text><text x="1064" y="134" fill="#e8e9e8">u</text><text x="1076" y="134" fill="#e8e9e8">t</text><text x="1088" y="134" fill="#e8e9e8">a</text><text x="1100" y="134" fill="#e8e9e8">d</text><text x="1112" y="134" fill="#e8e9e8">o</text><text x="1124" y="134" fill="#e8e9e8">r</text><text x="1136" y="134" fill="#e8e9e8">.</text><text x="1208" y="134" fill="#e8e9e8">│</text><text x="20" y="160" fill="#e8e9e8">│</text><text x="44" y="160" fill="#e8e9e8">O</text><text x="56" y="160" fill="#e8e9e8">r</text><text x="68" y="160" fill="#e8e9e8">g</text><text x="80" y="160" fill="#e8e9e8">a</text><text x="92" y="160" fill="#e8e9e8">n</text><text x="104" y="160" fill="#e8e9e8">i</text><text x="116" y="160" fill="#e8e9e8">z</text><text x="128" y="160" fill="#e8e9e8">a</text><text x="140" y="160" fill="#e8e9e8">ç</text><text x="152" y="160" fill="#e8e9e8">ã</text><text x="164" y="160" fill="#e8e9e8">o</text><text x="176" y="160" fill="#e8e9e8">:</text><text x="200" y="160" fill="#e8e9e8">e</text><text x="212" y="160" fill="#e8e9e8">x</text><text x="224" y="160" fill="#e8e9e8">a</text><text x="236" y="160" fill="#e8e9e8">m</text><text x="248" y="160" fill="#e8e9e8">p</text><text x="260" y="160" fill="#e8e9e8">l</text><text x="272" y="160" fill="#e8e9e8">e</text><text x="284" y="160" fill="#e8e9e8">-</text><text x="296" y="160" fill="#e8e9e8">o</text><text x="308" y="160" fill="#e8e9e8">r</text><text x="320" y="160" fill="#e8e9e8">g</text><text x="1208" y="160" fill="#e8e9e8">│</text><text x="20" y="186" fill="#e8e9e8">│</text><text x="1208" y="186" fill="#e8e9e8">│</text><text x="20" y="212" fill="#e8e9e8">│</text><text x="44" y="212" fill="#e8e9e8">e</text><text x="56" y="212" fill="#e8e9e8">n</text><text x="68" y="212" fill="#e8e9e8">t</text><text x="80" y="212" fill="#e8e9e8">e</text><text x="92" y="212" fill="#e8e9e8">r</text><text x="116" y="212" fill="#e8e9e8">l</text><text x="128" y="212" fill="#e8e9e8">i</text><text x="140" y="212" fill="#e8e9e8">g</text><text x="152" y="212" fill="#e8e9e8">a</text><text x="164" y="212" fill="#e8e9e8">r</text><text x="212" y="212" fill="#e8e9e8">e</text><text x="224" y="212" fill="#e8e9e8">s</text><text x="236" y="212" fill="#e8e9e8">c</text><text x="260" y="212" fill="#e8e9e8">s</text><text x="272" y="212" fill="#e8e9e8">a</text><text x="284" y="212" fill="#e8e9e8">i</text><text x="296" y="212" fill="#e8e9e8">r</text><text x="1208" y="212" fill="#e8e9e8">│</text><text x="20" y="238" fill="#42caff">╰</text><text x="32" y="238" fill="#42caff">─</text><text x="44" y="238" fill="#42caff">─</text><text x="56" y="238" fill="#42caff">─</text><text x="68" y="238" fill="#42caff">─</text><text x="80" y="238" fill="#42caff">─</text><text x="92" y="238" fill="#42caff">─</text><text x="104" y="238" fill="#42caff">─</text><text x="116" y="238" fill="#42caff">─</text><text x="128" y="238" fill="#42caff">─</text><text x="140" y="238" fill="#42caff">─</text><text x="152" y="238" fill="#42caff">─</text><text x="164" y="238" fill="#42caff">─</text><text x="176" y="238" fill="#42caff">─</text><text x="188" y="238" fill="#42caff">─</text><text x="200" y="238" fill="#42caff">─</text><text x="212" y="238" fill="#42caff">─</text><text x="224" y="238" fill="#42caff">─</text><text x="236" y="238" fill="#42caff">─</text><text x="248" y="238" fill="#42caff">─</text><text x="260" y="238" fill="#42caff">─</text><text x="272" y="238" fill="#42caff">─</text><text x="284" y="238" fill="#42caff">─</text><text x="296" y="238" fill="#42caff">─</text><text x="308" y="238" fill="#42caff">─</text><text x="320" y="238" fill="#42caff">─</text><text x="332" y="238" fill="#42caff">─</text><text x="344" y="238" fill="#42caff">─</text><text x="356" y="238" fill="#42caff">─</text><text x="368" y="238" fill="#42caff">─</text><text x="380" y="238" fill="#42caff">─</text><text x="392" y="238" fill="#42caff">─</text><text x="404" y="238" fill="#42caff">─</text><text x="416" y="238" fill="#42caff">─</text><text x="428" y="238" fill="#42caff">─</text><text x="440" y="238" fill="#42caff">─</text><text x="452" y="238" fill="#42caff">─</text><text x="464" y="238" fill="#42caff">─</text><text x="476" y="238" fill="#42caff">─</text><text x="488" y="238" fill="#42caff">─</text><text x="500" y="238" fill="#42caff">─</text><text x="512" y="238" fill="#42caff">─</text><text x="524" y="238" fill="#42caff">─</text><text x="536" y="238" fill="#42caff">─</text><text x="548" y="238" fill="#42caff">─</text><text x="560" y="238" fill="#42caff">─</text><text x="572" y="238" fill="#42caff">─</text><text x="584" y="238" fill="#42caff">─</text><text x="596" y="238" fill="#42caff">─</text><text x="608" y="238" fill="#42caff">─</text><text x="620" y="238" fill="#42caff">─</text><text x="632" y="238" fill="#42caff">─</text><text x="644" y="238" fill="#42caff">─</text><text x="656" y="238" fill="#42caff">─</text><text x="668" y="238" fill="#42caff">─</text><text x="680" y="238" fill="#42caff">─</text><text x="692" y="238" fill="#42caff">─</text><text x="704" y="238" fill="#42caff">─</text><text x="716" y="238" fill="#42caff">─</text><text x="728" y="238" fill="#42caff">─</text><text x="740" y="238" fill="#42caff">─</text><text x="752" y="238" fill="#42caff">─</text><text x="764" y="238" fill="#42caff">─</text><text x="776" y="238" fill="#42caff">─</text><text x="788" y="238" fill="#42caff">─</text><text x="800" y="238" fill="#42caff">─</text><text x="812" y="238" fill="#42caff">─</text><text x="824" y="238" fill="#42caff">─</text><text x="836" y="238" fill="#42caff">─</text><text x="848" y="238" fill="#42caff">─</text><text x="860" y="238" fill="#42caff">─</text><text x="872" y="238" fill="#42caff">─</text><text x="884" y="238" fill="#42caff">─</text><text x="896" y="238" fill="#42caff">─</text><text x="908" y="238" fill="#42caff">─</text><text x="920" y="238" fill="#42caff">─</text><text x="932" y="238" fill="#42caff">─</text><text x="944" y="238" fill="#42caff">─</text><text x="956" y="238" fill="#42caff">─</text><text x="968" y="238" fill="#42caff">─</text><text x="980" y="238" fill="#42caff">─</text><text x="992" y="238" fill="#42caff">─</text><text x="1004" y="238" fill="#42caff">─</text><text x="1016" y="238" fill="#42caff">─</text><text x="1028" y="238" fill="#42caff">─</text><text x="1040" y="238" fill="#42caff">─</text><text x="1052" y="238" fill="#42caff">─</text><text x="1064" y="238" fill="#42caff">─</text><text x="1076" y="238" fill="#42caff">─</text><text x="1088" y="238" fill="#42caff">─</text><text x="1100" y="238" fill="#42caff">─</text><text x="1112" y="238" fill="#42caff">─</text><text x="1124" y="238" fill="#42caff">─</text><text x="1136" y="238" fill="#42caff">─</text><text x="1148" y="238" fill="#42caff">─</text><text x="1160" y="238" fill="#42caff">─</text><text x="1172" y="238" fill="#42caff">─</text><text x="1184" y="238" fill="#42caff">─</text><text x="1196" y="238" fill="#42caff">─</text><text x="1208" y="238" fill="#42caff">╯</text></g></svg>
